<svg xmlns="http://www.w3.org/2000/svg" xmlns:xlink="http://www.w3.org/1999/xlink" width="72" height="72" viewBox="0 0 72 72">
  <defs>
    <linearGradient id="linear-gradient" y1="0.5" x2="1" y2="0.5" gradientUnits="objectBoundingBox">
      <stop offset="0" stop-color="#24d9c3"/>
      <stop offset="1" stop-color="#0084d6"/>
    </linearGradient>
  </defs>
  <path id="icons-with-circle_RGB_Control" d="M37,1A36,36,0,1,0,73,37,36.005,36.005,0,0,0,37,1Zm0,68.87A32.87,32.87,0,1,1,69.87,37,32.866,32.866,0,0,1,37,69.87Zm-.157-6.887a1.737,1.737,0,0,1-1.722-1.722V58.287s.47-9.235-4.7-14.87c-2.5-2.661-5.948-4.07-10.174-4.383h-.939l4.226,5.478a1.217,1.217,0,0,1,.313,1.252,1.584,1.584,0,0,1-.626,1.1,2.262,2.262,0,0,1-1.1.313,1.424,1.424,0,0,1-1.252-.626L15.87,40.13A3.944,3.944,0,0,1,14.93,37,4.609,4.609,0,0,1,16.5,34.183l6.417-5.009a2.262,2.262,0,0,1,1.1-.313,1.424,1.424,0,0,1,1.252.626,1.217,1.217,0,0,1,.313,1.252,2.523,2.523,0,0,1-.626,1.1L19.626,35.9l1.1.157c5.009.47,9.078,2.191,12.052,5.478,6.1,6.417,5.635,16.278,5.635,17.374v2.661C38.565,62.357,37.783,62.983,36.843,62.983Zm15.026-15.5a2.225,2.225,0,0,1-.939-.313,1.569,1.569,0,0,1-.313-2.348l4.07-5.635H53.9c-4.852.313-8.765,2.035-11.27,5.322a1.424,1.424,0,0,1-1.252.626,2.9,2.9,0,0,1-1.1-.313,1.584,1.584,0,0,1-.626-1.1,1.686,1.686,0,0,1,.313-1.252c2.974-3.913,7.357-6.1,12.835-6.574l1.1-.157-5.322-3.757a1.569,1.569,0,0,1-.313-2.348,1.526,1.526,0,0,1,1.409-.626,2.225,2.225,0,0,1,.939.313l6.574,4.7a4.447,4.447,0,0,1,1.1,5.948L53.435,46.7A2.173,2.173,0,0,1,51.87,47.487Zm-15.026-8.3a1.737,1.737,0,0,1-1.722-1.722V15.557L30.27,20.409a1.9,1.9,0,0,1-2.5,0,1.7,1.7,0,0,1,0-2.348l6.1-5.791a4.276,4.276,0,0,1,2.974-1.252h0a4.276,4.276,0,0,1,2.974,1.252l5.791,5.791a1.772,1.772,0,0,1-2.5,2.5l-4.539-5.009V37.47A1.737,1.737,0,0,1,36.843,39.191Z" transform="translate(-1 -1)" fill="url(#linear-gradient)"/>
</svg>
