<svg xmlns="http://www.w3.org/2000/svg" width="140.517" height="29.25" viewBox="0 0 140.517 29.25">
  <g id="Group_2224" data-name="Group 2224" transform="translate(9826 3930)">
    <path id="Path_8676" data-name="Path 8676" d="M601.715,517.47a38.517,38.517,0,0,0-4.417-.084c-1.663-.036-1.517.181-1.518-1.5q-.005-8.857,0-17.715c0-.983,0-.986.97-.987,1.547,0,3.094.023,4.639-.012.638-.015,1.075.084.959.875.118-.022.2-.011.242-.048,2.4-2.2,7.16-1.837,9.642,1.348a9.823,9.823,0,0,1-.729,12.515c-2.436,2.428-6.593,2.486-8.712.733-.1-.085-.205-.24-.356-.156-.174.1-.118.3-.1.449a31.221,31.221,0,0,1,.067,3.3,2.028,2.028,0,0,1-.264,1.283Zm5.747-12.289a2.651,2.651,0,0,0-2.608-2.586,2.637,2.637,0,0,0,.022,5.273A2.657,2.657,0,0,0,607.462,505.181Z" transform="translate(-10402.824 -4418.22)" fill="#fff"/>
    <path id="Path_8677" data-name="Path 8677" d="M461,504.428a22.008,22.008,0,0,1,.533-2.176,8.865,8.865,0,0,1,9.619-5.668c3.8.6,6.462,2.6,7.476,6.383a8.475,8.475,0,0,1-7.355,10.626,8.944,8.944,0,0,1-8.7-3.588,8.1,8.1,0,0,1-1.457-3.832c-.029-.207-.074-.413-.112-.619Zm6.35.621a2.671,2.671,0,0,0,2.643,2.709,2.722,2.722,0,0,0,2.612-2.687,2.628,2.628,0,0,0-5.255-.022Z" transform="translate(-10287 -4418.115)" fill="#fff"/>
    <path id="Path_8678" data-name="Path 8678" d="M833.4,437a4.31,4.31,0,0,1,3.028,2.184,3.992,3.992,0,1,1-4.683-1.983l.671-.2Z" transform="translate(-10603.146 -4367)" fill="#fff"/>
    <path id="Path_8679" data-name="Path 8679" d="M899.765,499.947c.358-.232.7-.471,1.055-.681a5.345,5.345,0,0,1,6.821,1.115c.407.478.582.208.866-.061a6.539,6.539,0,0,1,8.388-.535,4.976,4.976,0,0,1,2.007,4.077c.042,3.42,0,6.841.023,10.261,0,.627-.251.808-.84.8-1.64-.025-3.28-.032-4.92,0-.663.014-.908-.2-.9-.882.031-2.506.012-5.013.011-7.52,0-.258.008-.517-.015-.773-.053-.589-.227-1.133-.859-1.324a1.8,1.8,0,0,0-1.831.41c-.279.256-.234.6-.235.92q0,4.041,0,8.083c0,1.038-.038,1.073-1.058,1.075q-2.249,0-4.5,0c-1.069,0-1.07,0-1.071-1.106q0-3.62,0-7.239c0-.258.006-.517-.016-.773-.087-1.017-.58-1.482-1.52-1.448a1.37,1.37,0,0,0-1.484,1.546q-.007,4.006,0,8.012c0,1-.01,1.006-1.033,1.007-1.593,0-3.186-.017-4.779.009-.607.01-.834-.225-.832-.824q.017-7.274,0-14.549c0-.537.2-.748.749-.739,1.522.025,3.046.008,4.568.008C899.534,498.818,899.534,498.818,899.765,499.947Z" transform="translate(-10658.283 -4419.856)" fill="#fff"/>
    <path id="Path_8680" data-name="Path 8680" d="M1219.661,499.89c.258-.014.394-.232.578-.359a5.4,5.4,0,0,1,7.295.847c.407.475.59.186.873-.08a6.475,6.475,0,0,1,8.6-.338,4.443,4.443,0,0,1,1.7,3.422c.047,3.607.015,7.215.031,10.822,0,.524-.219.7-.716.7-1.687-.013-3.374-.023-5.06.006-.632.011-.8-.256-.793-.842.019-2.717.025-5.435,0-8.152a1.5,1.5,0,0,0-2.454-1.3,1.15,1.15,0,0,0-.564,1.115c.015,2.741.009,5.481.006,8.222,0,.923-.026.948-.945.95q-2.249.005-4.5,0c-1.184,0-1.186,0-1.187-1.157,0-2.623.009-5.247-.006-7.871a1.45,1.45,0,0,0-2.335-1.288,1.173,1.173,0,0,0-.6,1.163c.016,2.741.009,5.481.006,8.222,0,.884-.041.926-.9.929-1.663,0-3.327-.012-4.99.008-.539.006-.755-.191-.754-.737q.016-7.309,0-14.617c0-.591.239-.767.8-.757,1.522.027,3.045.009,4.568.009C1219.464,498.8,1219.464,498.8,1219.661,499.89Z" transform="translate(-10933.199 -4419.84)" fill="#fff"/>
    <path id="Path_8681" data-name="Path 8681" d="M1103.847,505.977c0,1.336.011,2.672,0,4.007a6.614,6.614,0,0,1-4.43,6.384,10.2,10.2,0,0,1-7.488-.071,6.512,6.512,0,0,1-4.185-6.189c-.008-2.835,0-5.671,0-8.507,0-.948.009-.957.925-.959,1.594,0,3.188.022,4.78-.012.636-.013.864.192.856.843-.029,2.413-.011,4.827-.011,7.241a4.185,4.185,0,0,0,.1,1.116,1.314,1.314,0,0,0,1.3,1.077,1.438,1.438,0,0,0,1.476-.966,3.1,3.1,0,0,0,.134-1.11c0-2.437.019-4.875-.012-7.311-.008-.665.19-.909.876-.892,1.639.041,3.281.031,4.921,0,.581-.01.785.2.774.776C1103.83,502.93,1103.848,504.454,1103.847,505.977Z" transform="translate(-10825.602 -4421.679)" fill="#fff"/>
    <path id="Path_8682" data-name="Path 8682" d="M731.559,479.156c0-.984-.025-1.969.01-2.952.021-.584-.194-.78-.774-.771-1.077.016-1.079-.012-1.08-1.084,0-1.265.023-2.531-.01-3.8-.016-.608.19-.832.809-.818,1.043.023,1.044-.009,1.045-1.025,0-1.078.018-2.156-.006-3.233-.012-.556.167-.807.764-.8,1.71.026,3.421.023,5.131,0,.557-.007.745.222.737.752-.018,1.195.012,2.39-.012,3.585-.011.54.176.775.733.737.49-.033.984.008,1.476-.008.413-.013.61.168.61.577q0,2.284,0,4.569a.488.488,0,0,1-.567.55c-.562-.006-1.125.015-1.687,0-.437-.012-.648.151-.641.612.016,1.031-.012,2.062.013,3.093.02.8.319,1.083,1.119,1.137,1.539.1,1.539.1,1.539,1.677,0,1.078-.012,2.156,0,3.233.006.43-.165.67-.589.711a16.535,16.535,0,0,1-5.521-.009,3.641,3.641,0,0,1-3.1-3.859c-.022-.96,0-1.921,0-2.882Z" transform="translate(-10517.917 -4390.785)" fill="#fff"/>
    <path id="Path_8683" data-name="Path 8683" d="M829.161,508.715q0,3.511,0,7.023c0,.993-.014,1-1.032,1.005-1.592,0-3.184-.02-4.775.01-.618.012-.817-.223-.813-.823.019-2.879.01-5.759.007-8.638,0-.934-.006-.973-.931-.935-.693.028-.966-.188-.94-.913.048-1.333.036-2.669,0-4-.015-.619.221-.81.823-.8,2.27.025,4.542.03,6.812,0,.648-.009.861.211.855.847C829.147,503.893,829.161,506.3,829.161,508.715Z" transform="translate(-10596.096 -4421.686)" fill="#fff"/>
    <path id="Path_8684" data-name="Path 8684" d="M1411.885,564.289a3.894,3.894,0,0,1-3.911,3.928,3.992,3.992,0,0,1-4-4.025,4.1,4.1,0,0,1,3.882-3.955A3.948,3.948,0,0,1,1411.885,564.289Z" transform="translate(-11097.367 -4472.907)" fill="#0084d6"/>
  </g>
</svg>
