<svg xmlns="http://www.w3.org/2000/svg" xmlns:xlink="http://www.w3.org/1999/xlink" width="72" height="72" viewBox="0 0 72 72">
  <defs>
    <linearGradient id="linear-gradient" y1="0.543" x2="1" y2="0.543" gradientUnits="objectBoundingBox">
      <stop offset="0" stop-color="#24d9c3"/>
      <stop offset="0.99" stop-color="#0084d6"/>
    </linearGradient>
  </defs>
  <path id="Protection" d="M36.5,72.5a36,36,0,1,1,36-36A35.958,35.958,0,0,1,36.5,72.5Zm0-68.936A32.936,32.936,0,1,0,69.436,36.5,32.886,32.886,0,0,0,36.5,3.564Zm.153,58.213a.921.921,0,0,1-.613-.153C24.091,56.568,16.585,46.764,16.585,36.04V19.955a1.447,1.447,0,0,1,1.532-1.532,1.393,1.393,0,0,1,1.226.613A10.342,10.342,0,0,0,27,21.794c4.289,0,7.353-1.838,8.119-3.523a1.494,1.494,0,0,1,2.757,0c.766,1.838,3.83,3.523,8.119,3.523,3.37,0,6.281-1.072,7.66-2.757a1.489,1.489,0,0,1,2.145-.153,1.891,1.891,0,0,1,.613,1.226V36.194c.306,10.723-7.047,20.528-19.149,25.736a.921.921,0,0,0-.613-.153Zm-17-38.757V36.04c0,9.345,6.434,17.923,17,22.519,10.57-4.6,16.851-13.174,16.7-22.519V23.172a15.068,15.068,0,0,1-7.2,1.685,14.053,14.053,0,0,1-9.651-3.37,13.674,13.674,0,0,1-9.5,3.37A15.4,15.4,0,0,1,19.649,23.019ZM36.04,48.3a1.393,1.393,0,0,1-1.226-.613l-7.2-8.272a1.48,1.48,0,0,1,.153-2.145,1.628,1.628,0,0,1,2.145.153h0l5.821,6.74,9.038-13.787a1.551,1.551,0,1,1,2.6,1.685h0L37.113,47.53a1.152,1.152,0,0,1-1.072.766Z" transform="translate(-0.5 -0.5)" fill="url(#linear-gradient)"/>
</svg>
