<svg xmlns="http://www.w3.org/2000/svg" xmlns:xlink="http://www.w3.org/1999/xlink" width="72" height="72" viewBox="0 0 72 72">
  <defs>
    <linearGradient id="linear-gradient" y1="0.543" x2="1" y2="0.543" gradientUnits="objectBoundingBox">
      <stop offset="0" stop-color="#24d9c3"/>
      <stop offset="0.99" stop-color="#0084d6"/>
    </linearGradient>
  </defs>
  <path id="Savings" d="M37,1A36,36,0,1,0,73,37,36.005,36.005,0,0,0,37,1Zm0,68.87A32.87,32.87,0,1,1,69.87,37,32.866,32.866,0,0,1,37,69.87ZM49.522,43.887h0c0,5.009-3.913,8.609-9.548,9.391l.157,3.13c.157,2.035-.783,3.13-2.661,3.13H37a2.6,2.6,0,0,1-2.817-3.13l.313-3.13A13.531,13.531,0,0,1,25.1,47.643c-1.1-1.722-.47-2.974,1.409-3.6l.626-.157c1.565-.47,2.348,0,3.6,1.252a8.235,8.235,0,0,0,6.574,2.817c3.287,0,5.322-1.409,5.322-3.757,0-6.261-17.217-2.191-17.217-14.087,0-4.852,3.6-8.3,9.078-9.078l-.157-3.13c-.157-2.035.783-3.13,2.661-3.13h.47c1.878,0,2.817,1.1,2.661,3.13l-.157,3.287a12.771,12.771,0,0,1,8.139,4.7Q49.757,28.7,46.7,29.643l-.783.157c-1.878.47-2.5-.313-3.913-1.565A7.538,7.538,0,0,0,37,26.2c-2.974,0-4.852,1.409-4.852,3.6C31.991,36.53,49.522,31.835,49.522,43.887Z" transform="translate(-1 -1)" fill="url(#linear-gradient)"/>
</svg>
