<svg xmlns="http://www.w3.org/2000/svg" xmlns:xlink="http://www.w3.org/1999/xlink" width="72" height="72" viewBox="0 0 72 72">
  <defs>
    <linearGradient id="linear-gradient" y1="0.543" x2="1" y2="0.543" gradientUnits="objectBoundingBox">
      <stop offset="0" stop-color="#24d9c3"/>
      <stop offset="0.99" stop-color="#0084d6"/>
    </linearGradient>
  </defs>
  <path id="Speed" d="M37,1A36,36,0,1,0,73,37,36.005,36.005,0,0,0,37,1Zm0,68.87A32.87,32.87,0,1,1,69.87,37,32.866,32.866,0,0,1,37,69.87ZM50.93,45.452H23.07a4.612,4.612,0,0,0-4.7,4.7v3.913a4.612,4.612,0,0,0,4.7,4.7H51.087a4.612,4.612,0,0,0,4.7-4.7V50.148A4.844,4.844,0,0,0,50.93,45.452ZM52.5,53.9A1.479,1.479,0,0,1,50.93,55.47H23.07A1.479,1.479,0,0,1,21.5,53.9V49.991a1.479,1.479,0,0,1,1.565-1.565H51.087a1.479,1.479,0,0,1,1.565,1.565V53.9ZM35.278,13.522v-3.13a1.722,1.722,0,1,1,3.443,0v3.13a1.722,1.722,0,1,1-3.443,0Zm30.209,21.13a1.737,1.737,0,0,1-1.722,1.722h-3.13a1.722,1.722,0,0,1,0-3.443h3.13A1.737,1.737,0,0,1,65.487,34.652Zm-50.557,0a1.737,1.737,0,0,1-1.722,1.722h-3.13a1.722,1.722,0,1,1,0-3.443h3.287A1.714,1.714,0,0,1,14.93,34.652Zm4.852-13.617-2.661-1.878A1.693,1.693,0,0,1,19,16.339l2.661,1.878a1.724,1.724,0,0,1,.47,2.348,1.5,1.5,0,0,1-2.348.47Zm35.374-4.226L40.6,29.957a6.518,6.518,0,0,0-9.235,2.191c-1.878,3.287-1.1,7.357,2.191,9.235a6.518,6.518,0,0,0,9.235-2.191,6.4,6.4,0,0,0,0-7.043L57.348,19a1.521,1.521,0,0,0-.157-2.191,1.465,1.465,0,0,0-2.035,0ZM37,39.191a3.51,3.51,0,0,1-3.443-3.6h0a3.114,3.114,0,0,1,1.1-2.5A3.542,3.542,0,0,1,39.661,38.1,4.44,4.44,0,0,1,37,39.191Z" transform="translate(-1 -1)" fill="url(#linear-gradient)"/>
</svg>
